<?xml version="1.0" encoding="UTF-8"?>
<!DOCTYPE svg PUBLIC "-//W3C//DTD SVG 1.1//EN" "http://www.w3.org/Graphics/SVG/1.1/DTD/svg11.dtd">
<!-- Creator: CorelDRAW (OEM Version) -->
<svg xmlns="http://www.w3.org/2000/svg" xml:space="preserve" width="3.01036in" height="1.20272in" version="1.1" style="shape-rendering:geometricPrecision; text-rendering:geometricPrecision; image-rendering:optimizeQuality; fill-rule:evenodd; clip-rule:evenodd"
viewBox="0 0 9071.64 3624.35"
 xmlns:xlink="http://www.w3.org/1999/xlink"
 xmlns:xodm="http://www.corel.com/coreldraw/odm/2003">
 <defs>
  <style type="text/css">
   <![CDATA[
    .fil3 {fill:#BA0000}
    .fil1 {fill:black;fill-rule:nonzero}
    .fil0 {fill:black;fill-rule:nonzero}
    .fil2 {fill:#BA0000;fill-rule:nonzero}
   ]]>
  </style>
 </defs>
 <g id="Layer_x0020_1">
  <metadata id="CorelCorpID_0Corel-Layer"/>
  <path class="fil0" d="M31.21 3086.38l104.76 0c58.36,0 97.95,2.43 118.66,7.19 31.31,7.06 56.64,22.29 76.13,45.81 19.62,23.38 29.36,52.26 29.36,86.49 0,28.51 -6.7,53.6 -20.23,75.17 -13.39,21.69 -32.64,38.01 -57.74,49.09 -24.97,11.08 -59.57,16.69 -103.67,16.93l188.95 244.14 -64.45 0 -188.95 -244.14 -30.22 0 0 244.14 -52.62 0 0 -524.82zm52.62 51.17l0 178.35 90.64 0.72c35.21,0 61.16,-3.29 77.97,-9.99 16.81,-6.7 29.97,-17.3 39.47,-31.91 9.37,-14.62 14.13,-30.94 14.13,-49.09 0,-17.55 -4.76,-33.62 -14.38,-48 -9.5,-14.38 -22.04,-24.61 -37.64,-30.82 -15.47,-6.22 -41.3,-9.25 -77.35,-9.25l-92.84 0z"/>
  <path id="_1" class="fil0" d="M791.63 3482.55l42.15 22.16c-13.89,26.93 -29.85,48.74 -48,65.3 -18.15,16.46 -38.49,29.11 -61.15,37.76 -22.79,8.66 -48.37,12.92 -77,12.92 -63.59,0 -113.17,-20.71 -148.99,-62.13 -35.82,-41.42 -53.72,-88.2 -53.72,-140.34 0,-49.09 15.22,-92.95 45.56,-131.32 38.37,-48.86 89.91,-73.34 154.35,-73.34 66.39,0 119.51,25.09 159.1,75.17 28.14,35.33 42.52,79.43 43.01,132.41l-350.86 0c0.97,44.95 15.47,81.74 43.37,110.38 28.01,28.75 62.62,43.11 103.67,43.11 19.86,0 39.22,-3.4 57.99,-10.23 18.76,-6.82 34.71,-15.84 47.87,-27.17 13.16,-11.33 27.42,-29.48 42.64,-54.69zm0.49 -104.53c-6.7,-26.67 -16.44,-47.87 -29.23,-63.83 -12.92,-15.96 -29.85,-28.76 -50.92,-38.5 -21.08,-9.74 -43.26,-14.62 -66.4,-14.62 -38.37,0 -71.27,12.18 -98.79,36.67 -20.23,17.9 -35.33,44.59 -45.69,80.27l291.04 0z"/>
  <polygon id="_2" class="fil0" points="931.6,3073.22 981.31,3073.22 981.31,3611.19 931.6,3611.19 "/>
  <path id="_3" class="fil0" d="M1102.65 3063.71c11.33,0 20.95,4.02 29,12.18 8.03,8.04 12.05,17.9 12.05,29.23 0,11.21 -4.02,20.95 -12.05,29 -8.04,8.16 -17.67,12.18 -29,12.18 -11.21,0 -20.71,-4.02 -28.76,-12.18 -8.03,-8.04 -12.05,-17.78 -12.05,-29 0,-11.33 4.02,-21.19 12.05,-29.23 8.04,-8.16 17.55,-12.18 28.76,-12.18zm-24.74 159.35l49.71 0 0 388.13 -49.71 0 0 -388.13z"/>
  <path id="_4" class="fil0" d="M1618.2 3223.06l0 388.13 -49.7 0 0 -66.76c-20.96,25.46 -44.35,44.59 -70.43,57.26 -25.95,12.67 -54.44,19.01 -85.27,19.01 -54.82,0 -101.72,-19.86 -140.59,-59.57 -38.87,-39.84 -58.23,-88.08 -58.23,-145.1 0,-55.67 19.61,-103.43 58.83,-143.02 39.1,-39.59 86.25,-59.45 141.44,-59.45 31.8,0 60.54,6.7 86.37,20.1 25.71,13.41 48.37,33.62 67.86,60.79l0 -71.39 49.7 0zm-200.04 38.74c-27.77,0 -53.47,6.82 -76.87,20.47 -23.51,13.53 -42.15,32.65 -56.03,57.27 -13.89,24.61 -20.83,50.67 -20.83,78.21 0,27.17 6.94,53.23 20.95,78.09 14.01,24.86 32.77,44.22 56.4,57.99 23.63,13.88 48.97,20.82 76.02,20.82 27.16,0 53.12,-6.82 77.47,-20.58 24.49,-13.76 43.26,-32.28 56.41,-55.8 13.16,-23.38 19.73,-49.82 19.73,-79.18 0,-44.72 -14.74,-82.11 -44.35,-112.2 -29.48,-30.1 -65.79,-45.08 -108.91,-45.08z"/>
  <path id="_5" class="fil0" d="M1734.54 3611.19l0 -537.98 49.71 0 0 217.09c20.95,-25.7 44.35,-44.95 70.29,-57.62 25.95,-12.79 54.33,-19.12 85.15,-19.12 54.94,0 101.85,19.86 140.71,59.57 38.87,39.84 58.36,87.96 58.36,144.73 0,55.92 -19.61,103.8 -58.85,143.39 -39.22,39.59 -86.37,59.45 -141.56,59.45 -31.67,0 -60.29,-6.7 -86,-20.1 -25.71,-13.41 -48.37,-33.62 -68.1,-60.79l0 71.39 -49.71 0zm200.16 -38.74c27.66,0 53.36,-6.82 76.75,-20.35 23.51,-13.64 42.15,-32.77 56.05,-57.39 13.88,-24.48 20.83,-50.55 20.83,-77.96 0,-27.42 -6.95,-53.6 -20.96,-78.46 -14,-24.74 -32.77,-44.1 -56.4,-57.99 -23.63,-13.76 -48.84,-20.7 -75.65,-20.7 -27.17,0 -53.12,6.94 -77.73,20.7 -24.49,13.89 -43.36,32.53 -56.52,55.92 -13.16,23.4 -19.74,49.71 -19.74,79.07 0,44.7 14.75,82.1 44.35,112.07 29.48,30.1 65.79,45.08 109.03,45.08z"/>
  <polygon id="_6" class="fil0" points="2222.2,3073.22 2271.91,3073.22 2271.91,3611.19 2222.2,3611.19 "/>
  <path id="_7" class="fil0" d="M2703.52 3482.55l42.15 22.16c-13.89,26.93 -29.85,48.74 -48,65.3 -18.15,16.46 -38.49,29.11 -61.15,37.76 -22.79,8.66 -48.37,12.92 -77,12.92 -63.59,0 -113.17,-20.71 -148.99,-62.13 -35.82,-41.42 -53.72,-88.2 -53.72,-140.34 0,-49.09 15.22,-92.95 45.56,-131.32 38.37,-48.86 89.91,-73.34 154.35,-73.34 66.39,0 119.51,25.09 159.1,75.17 28.14,35.33 42.52,79.43 43.01,132.41l-350.86 0c0.97,44.95 15.47,81.74 43.37,110.38 28.01,28.75 62.62,43.11 103.67,43.11 19.86,0 39.22,-3.4 57.99,-10.23 18.76,-6.82 34.71,-15.84 47.87,-27.17 13.16,-11.33 27.42,-29.48 42.64,-54.69zm0.49 -104.53c-6.7,-26.67 -16.44,-47.87 -29.23,-63.83 -12.92,-15.96 -29.85,-28.76 -50.92,-38.5 -21.08,-9.74 -43.26,-14.62 -66.4,-14.62 -38.37,0 -71.27,12.18 -98.79,36.67 -20.23,17.9 -35.33,44.59 -45.69,80.27l291.04 0z"/>
  <path id="_8" class="fil0" d="M3061.2 3086.38l104.65 0c59.94,0 100.5,2.56 121.45,7.79 29.97,7.44 54.46,22.54 73.46,45.57 19.12,22.9 28.63,51.77 28.63,86.49 0,34.96 -9.25,63.71 -27.89,86.5 -18.52,22.65 -44.11,37.88 -76.63,45.8 -23.88,5.73 -68.35,8.53 -133.52,8.53l-37.53 0 0 244.14 -52.63 0 0 -524.82zm52.63 51.17l0 178.35 88.93 1.09c35.94,0 62.25,-3.29 78.94,-9.87 16.69,-6.57 29.84,-17.05 39.34,-31.68 9.5,-14.62 14.26,-31.06 14.26,-49.09 0,-17.54 -4.76,-33.74 -14.26,-48.36 -9.5,-14.62 -22.16,-24.97 -37.76,-31.19 -15.59,-6.22 -41.05,-9.25 -76.63,-9.25l-92.82 0z"/>
  <path id="_9" class="fil0" d="M3466.76 3223.06l51.16 0 0 56.77c15.23,-22.41 31.31,-38.99 48.24,-49.95 16.94,-10.84 34.61,-16.32 52.88,-16.32 13.89,0 28.63,4.39 44.35,13.16l-26.08 41.9c-10.48,-4.5 -19.24,-6.82 -26.43,-6.82 -16.69,0 -32.77,6.82 -48.24,20.47 -15.47,13.66 -27.29,34.98 -35.45,63.72 -6.22,22.04 -9.27,66.76 -9.27,134l0 131.2 -51.16 0 0 -388.13z"/>
  <path id="_10" class="fil0" d="M3889.73 3213.56c59.82,0 109.52,21.57 148.87,64.81 35.82,39.35 53.72,86 53.72,139.85 0,54.09 -18.89,101.35 -56.77,141.8 -37.76,40.44 -86.5,60.67 -145.82,60.67 -59.7,0 -108.54,-20.23 -146.31,-60.67 -37.89,-40.44 -56.77,-87.71 -56.77,-141.8 0,-53.6 17.9,-100.14 53.72,-139.49 39.35,-43.49 89.17,-65.18 149.36,-65.18zm-0.25 48.97c-41.54,0 -77.12,15.23 -106.95,45.81 -29.85,30.57 -44.72,67.61 -44.72,110.98 0,27.9 6.82,53.97 20.35,78.22 13.64,24.12 32.04,42.76 55.19,55.92 23.02,13.16 48.48,19.73 76.13,19.73 27.66,0 53.12,-6.57 76.14,-19.73 23.15,-13.16 41.54,-31.8 55.19,-55.92 13.51,-24.25 20.33,-50.32 20.33,-78.22 0,-43.36 -14.98,-80.4 -44.95,-110.98 -29.84,-30.57 -65.42,-45.81 -106.72,-45.81z"/>
  <path id="_11" class="fil0" d="M4345.1 3073.7l0 48.61c-18.4,-7.91 -34.24,-11.82 -47.4,-11.82 -9.87,0 -18.03,1.95 -24.49,5.85 -6.45,3.9 -10.59,8.41 -12.18,13.53 -1.7,5.11 -2.55,18.76 -2.55,40.81l0 52.38 81.49 0 0 43.13 -81.61 0 -0.25 345.01 -49.71 0 0 -345.01 -51.16 0 0 -43.13 51.16 0 0 -60.42c0,-27.77 2.56,-47.63 7.68,-59.45 5.13,-11.82 13.89,-21.44 26.2,-28.63 12.18,-7.19 27.05,-10.84 44.47,-10.84 16.21,0 35.7,3.29 58.36,9.99z"/>
  <path id="_12" class="fil0" d="M4741.52 3482.55l42.15 22.16c-13.89,26.93 -29.85,48.74 -48,65.3 -18.15,16.46 -38.49,29.11 -61.15,37.76 -22.79,8.66 -48.37,12.92 -77,12.92 -63.59,0 -113.17,-20.71 -148.99,-62.13 -35.82,-41.42 -53.72,-88.2 -53.72,-140.34 0,-49.09 15.22,-92.95 45.56,-131.32 38.37,-48.86 89.91,-73.34 154.35,-73.34 66.39,0 119.51,25.09 159.1,75.17 28.14,35.33 42.52,79.43 43.01,132.41l-350.86 0c0.97,44.95 15.47,81.74 43.37,110.38 28.01,28.75 62.62,43.11 103.67,43.11 19.86,0 39.22,-3.4 57.99,-10.23 18.76,-6.82 34.71,-15.84 47.87,-27.17 13.16,-11.33 27.42,-29.48 42.64,-54.69zm0.49 -104.53c-6.7,-26.67 -16.44,-47.87 -29.23,-63.83 -12.92,-15.96 -29.85,-28.76 -50.92,-38.5 -21.08,-9.74 -43.26,-14.62 -66.4,-14.62 -38.37,0 -71.27,12.18 -98.79,36.67 -20.23,17.9 -35.33,44.59 -45.69,80.27l291.04 0z"/>
  <path id="_13" class="fil0" d="M5084.7 3265.21l-32.16 33.14c-26.68,-25.83 -52.87,-38.74 -78.34,-38.74 -16.19,0 -30.09,5.35 -41.65,16.08 -11.58,10.59 -17.43,23.15 -17.43,37.4 0,12.55 4.76,24.62 14.26,35.95 9.5,11.69 29.6,25.33 60.06,41.05 37.04,19.12 62.25,37.76 75.66,55.55 13.03,18.03 19.61,38.38 19.61,60.92 0,31.91 -11.21,58.83 -33.62,81.01 -22.42,22.06 -50.43,33.14 -84.06,33.14 -22.42,0 -43.74,-4.88 -64.21,-14.62 -20.35,-9.75 -37.16,-23.15 -50.55,-40.33l31.43 -35.7c25.46,28.76 52.63,43.13 81.26,43.13 19.98,0 37.04,-6.45 51.17,-19.24 14.01,-12.79 21.07,-27.9 21.07,-45.2 0,-14.25 -4.63,-26.92 -13.88,-38.13 -9.38,-10.96 -30.34,-24.72 -62.99,-41.3 -35.08,-18.02 -58.96,-35.82 -71.52,-53.35 -12.67,-17.55 -18.99,-37.53 -18.99,-60.06 0,-29.36 10.11,-53.73 30.21,-73.22 20.23,-19.36 45.69,-29.11 76.51,-29.11 35.81,0 71.87,17.18 108.18,51.66z"/>
  <path id="_14" class="fil0" d="M5368.43 3265.21l-32.16 33.14c-26.68,-25.83 -52.87,-38.74 -78.34,-38.74 -16.19,0 -30.09,5.35 -41.65,16.08 -11.58,10.59 -17.43,23.15 -17.43,37.4 0,12.55 4.76,24.62 14.26,35.95 9.5,11.69 29.6,25.33 60.06,41.05 37.04,19.12 62.25,37.76 75.66,55.55 13.03,18.03 19.61,38.38 19.61,60.92 0,31.91 -11.21,58.83 -33.62,81.01 -22.42,22.06 -50.43,33.14 -84.06,33.14 -22.42,0 -43.74,-4.88 -64.21,-14.62 -20.35,-9.75 -37.16,-23.15 -50.55,-40.33l31.43 -35.7c25.46,28.76 52.63,43.13 81.26,43.13 19.98,0 37.04,-6.45 51.17,-19.24 14.01,-12.79 21.07,-27.9 21.07,-45.2 0,-14.25 -4.63,-26.92 -13.88,-38.13 -9.38,-10.96 -30.34,-24.72 -62.99,-41.3 -35.08,-18.02 -58.96,-35.82 -71.52,-53.35 -12.67,-17.55 -18.99,-37.53 -18.99,-60.06 0,-29.36 10.11,-53.73 30.21,-73.22 20.23,-19.36 45.69,-29.11 76.51,-29.11 35.81,0 71.87,17.18 108.18,51.66z"/>
  <path id="_15" class="fil0" d="M5473.68 3063.71c11.33,0 20.95,4.02 29,12.18 8.03,8.04 12.05,17.9 12.05,29.23 0,11.21 -4.02,20.95 -12.05,29 -8.04,8.16 -17.67,12.18 -29,12.18 -11.21,0 -20.71,-4.02 -28.76,-12.18 -8.03,-8.04 -12.05,-17.78 -12.05,-29 0,-11.33 4.02,-21.19 12.05,-29.23 8.04,-8.16 17.55,-12.18 28.76,-12.18zm-24.74 159.35l49.71 0 0 388.13 -49.71 0 0 -388.13z"/>
  <path id="_16" class="fil0" d="M5786.65 3213.56c59.82,0 109.52,21.57 148.87,64.81 35.82,39.35 53.72,86 53.72,139.85 0,54.09 -18.89,101.35 -56.77,141.8 -37.76,40.44 -86.5,60.67 -145.82,60.67 -59.7,0 -108.54,-20.23 -146.31,-60.67 -37.89,-40.44 -56.77,-87.71 -56.77,-141.8 0,-53.6 17.9,-100.14 53.72,-139.49 39.35,-43.49 89.17,-65.18 149.36,-65.18zm-0.25 48.97c-41.54,0 -77.12,15.23 -106.95,45.81 -29.85,30.57 -44.72,67.61 -44.72,110.98 0,27.9 6.82,53.97 20.35,78.22 13.64,24.12 32.04,42.76 55.19,55.92 23.02,13.16 48.48,19.73 76.13,19.73 27.66,0 53.12,-6.57 76.14,-19.73 23.15,-13.16 41.54,-31.8 55.19,-55.92 13.51,-24.25 20.33,-50.32 20.33,-78.22 0,-43.36 -14.98,-80.4 -44.95,-110.98 -29.84,-30.57 -65.42,-45.81 -106.72,-45.81z"/>
  <path id="_17" class="fil0" d="M6081.21 3223.06l49.71 0 0 69.56c20.1,-26.55 42.27,-46.41 66.51,-59.45 24.37,-13.03 50.8,-19.61 79.43,-19.61 29.11,0 54.94,7.31 77.48,22.06 22.54,14.74 39.22,34.6 49.95,59.57 10.73,24.86 16.08,63.71 16.08,116.46l0 199.55 -49.7 0 0 -184.93c0,-44.6 -1.95,-74.44 -5.73,-89.42 -6.09,-25.59 -17.3,-44.83 -33.74,-57.87 -16.44,-12.91 -37.88,-19.36 -64.33,-19.36 -30.34,0 -57.49,9.99 -81.38,29.97 -24,19.85 -39.84,44.59 -47.39,74.07 -4.76,19.24 -7.19,54.33 -7.19,105.38l0 142.17 -49.71 0 0 -388.13z"/>
  <path id="_18" class="fil0" d="M6913.64 3223.06l0 388.13 -49.7 0 0 -66.76c-20.96,25.46 -44.35,44.59 -70.43,57.26 -25.95,12.67 -54.44,19.01 -85.27,19.01 -54.82,0 -101.72,-19.86 -140.59,-59.57 -38.87,-39.84 -58.23,-88.08 -58.23,-145.1 0,-55.67 19.61,-103.43 58.83,-143.02 39.1,-39.59 86.25,-59.45 141.44,-59.45 31.8,0 60.54,6.7 86.37,20.1 25.71,13.41 48.37,33.62 67.86,60.79l0 -71.39 49.7 0zm-200.04 38.74c-27.77,0 -53.47,6.82 -76.87,20.47 -23.51,13.53 -42.15,32.65 -56.03,57.27 -13.89,24.61 -20.83,50.67 -20.83,78.21 0,27.17 6.94,53.23 20.95,78.09 14.01,24.86 32.77,44.22 56.4,57.99 23.63,13.88 48.97,20.82 76.02,20.82 27.16,0 53.12,-6.82 77.47,-20.58 24.49,-13.76 43.26,-32.28 56.41,-55.8 13.16,-23.38 19.73,-49.82 19.73,-79.18 0,-44.72 -14.74,-82.11 -44.35,-112.2 -29.48,-30.1 -65.79,-45.08 -108.91,-45.08z"/>
  <polygon id="_19" class="fil0" points="7019.01,3073.22 7068.72,3073.22 7068.72,3611.19 7019.01,3611.19 "/>
  <path id="_20" class="fil0" d="M7872.03 3183.22l-41.42 31.8c-22.78,-29.72 -50.2,-52.26 -82.23,-67.61 -31.93,-15.34 -67.01,-23.02 -105.38,-23.02 -41.79,0 -80.53,10.11 -116.22,30.21 -35.7,20.11 -63.24,47.15 -82.85,81.02 -19.61,33.86 -29.48,72.12 -29.48,114.39 0,64.08 21.94,117.56 65.79,160.32 43.86,42.88 99.17,64.32 166.05,64.32 73.46,0 134.86,-28.75 184.32,-86.24l41.42 31.43c-26.2,33.25 -58.83,59.08 -97.95,77.24 -39.1,18.15 -82.83,27.29 -131.07,27.29 -91.86,0 -164.34,-30.57 -217.34,-91.73 -44.47,-51.54 -66.76,-113.91 -66.76,-186.88 0,-76.75 26.92,-141.43 80.77,-193.82 53.97,-52.5 121.45,-78.69 202.59,-78.69 48.97,0 93.19,9.62 132.66,28.88 39.47,19.36 71.88,46.41 97.1,81.13z"/>
  <path id="_21" class="fil0" d="M8355.91 3223.06l0 388.13 -49.7 0 0 -66.76c-20.96,25.46 -44.35,44.59 -70.43,57.26 -25.95,12.67 -54.44,19.01 -85.27,19.01 -54.82,0 -101.72,-19.86 -140.59,-59.57 -38.87,-39.84 -58.23,-88.08 -58.23,-145.1 0,-55.67 19.61,-103.43 58.83,-143.02 39.1,-39.59 86.25,-59.45 141.44,-59.45 31.8,0 60.54,6.7 86.37,20.1 25.71,13.41 48.37,33.62 67.86,60.79l0 -71.39 49.7 0zm-200.04 38.74c-27.77,0 -53.47,6.82 -76.87,20.47 -23.51,13.53 -42.15,32.65 -56.03,57.27 -13.89,24.61 -20.83,50.67 -20.83,78.21 0,27.17 6.94,53.23 20.95,78.09 14.01,24.86 32.77,44.22 56.4,57.99 23.63,13.88 48.97,20.82 76.02,20.82 27.16,0 53.12,-6.82 77.47,-20.58 24.49,-13.76 43.26,-32.28 56.41,-55.8 13.16,-23.38 19.73,-49.82 19.73,-79.18 0,-44.72 -14.74,-82.11 -44.35,-112.2 -29.48,-30.1 -65.79,-45.08 -108.91,-45.08z"/>
  <path id="_22" class="fil0" d="M8449.61 3223.06l51.16 0 0 56.77c15.23,-22.41 31.31,-38.99 48.24,-49.95 16.94,-10.84 34.61,-16.32 52.88,-16.32 13.89,0 28.63,4.39 44.35,13.16l-26.08 41.9c-10.48,-4.5 -19.24,-6.82 -26.43,-6.82 -16.69,0 -32.77,6.82 -48.24,20.47 -15.47,13.66 -27.29,34.98 -35.45,63.72 -6.22,22.04 -9.27,66.76 -9.27,134l0 131.2 -51.16 0 0 -388.13z"/>
  <path id="_23" class="fil0" d="M9016.2 3482.55l42.15 22.16c-13.89,26.93 -29.85,48.74 -48,65.3 -18.15,16.46 -38.49,29.11 -61.15,37.76 -22.79,8.66 -48.37,12.92 -77,12.92 -63.59,0 -113.17,-20.71 -148.99,-62.13 -35.82,-41.42 -53.72,-88.2 -53.72,-140.34 0,-49.09 15.22,-92.95 45.56,-131.32 38.37,-48.86 89.91,-73.34 154.35,-73.34 66.39,0 119.51,25.09 159.1,75.17 28.14,35.33 42.52,79.43 43.01,132.41l-350.86 0c0.97,44.95 15.47,81.74 43.37,110.38 28.01,28.75 62.62,43.11 103.67,43.11 19.86,0 39.22,-3.4 57.99,-10.23 18.76,-6.82 34.71,-15.84 47.87,-27.17 13.16,-11.33 27.42,-29.48 42.64,-54.69zm0.49 -104.53c-6.7,-26.67 -16.44,-47.87 -29.23,-63.83 -12.92,-15.96 -29.85,-28.76 -50.92,-38.5 -21.08,-9.74 -43.26,-14.62 -66.4,-14.62 -38.37,0 -71.27,12.18 -98.79,36.67 -20.23,17.9 -35.33,44.59 -45.69,80.27l291.04 0z"/>
  <g id="_2078008008512">
   <path class="fil1" d="M2114.71 17.08l305.69 0c175.08,0 293.59,7.47 354.79,22.78 87.53,21.71 159.06,65.83 214.59,133.09 55.87,66.9 83.62,151.24 83.62,252.66 0,102.14 -27.04,186.12 -81.48,252.67 -54.1,66.19 -128.83,110.67 -223.84,133.8 -69.75,16.72 -199.64,24.9 -390.03,24.9l-109.6 0 0 713.15 -153.73 0 0 -1533.05zm153.73 149.46l0 520.99 259.78 3.19c104.99,0 181.85,-9.6 230.6,-28.82 48.75,-19.22 87.19,-49.82 114.94,-92.53 27.76,-42.7 41.64,-90.74 41.64,-143.41 0,-51.24 -13.88,-98.57 -41.64,-141.28 -27.75,-42.7 -64.77,-72.95 -110.31,-91.09 -45.55,-18.15 -119.92,-27.05 -223.84,-27.05l-271.16 0z"/>
   <path id="_1_0" class="fil1" d="M3143.44 416.36l145.19 0 0 529.17c0,129.18 7.12,217.79 21,266.54 20.63,69.39 60.85,124.19 119.57,164.41 58.72,40.21 129.18,60.49 210.67,60.49 81.49,0 150.53,-19.58 207.47,-58.73 56.58,-39.5 96.08,-90.74 117.43,-154.79 14.59,-43.78 22.07,-136.29 22.07,-277.93l0 -529.17 149.46 0 0 555.85c0,156.23 -18.15,273.66 -54.81,352.66 -36.29,79.36 -91.45,141.28 -164.76,185.77 -73.31,44.83 -165.12,67.26 -275.79,67.26 -110.68,0 -202.84,-22.42 -276.86,-67.26 -74.02,-44.49 -129.53,-107.12 -165.84,-187.19 -36.65,-80.07 -54.8,-200.7 -54.8,-361.55l0 -545.54z"/>
   <polygon id="_2_1" class="fil1" points="4246.88,0.01 4392.07,0.01 4392.07,1571.49 4246.88,1571.49 "/>
   <path id="_3_2" class="fil1" d="M5118.31 539.49l-93.94 96.79c-77.93,-75.44 -154.45,-113.16 -228.82,-113.16 -47.33,0 -87.9,15.66 -121.7,46.97 -33.81,30.97 -50.88,67.61 -50.88,109.26 0,36.65 13.87,71.88 41.63,104.97 27.76,34.17 86.48,74.02 175.43,119.92 108.19,55.88 181.85,110.32 220.99,162.28 38.08,52.66 57.29,112.09 57.29,177.93 0,93.24 -32.73,171.89 -98.21,236.65 -65.48,64.41 -147.33,96.8 -245.55,96.8 -65.48,0 -127.75,-14.24 -187.54,-42.71 -59.43,-28.46 -108.53,-67.61 -147.68,-117.79l91.82 -104.27c74.38,83.99 153.73,125.98 237.35,125.98 58.37,0 108.19,-18.86 149.46,-56.24 40.93,-37.36 61.56,-81.48 61.56,-132.02 0,-41.63 -13.51,-78.65 -40.56,-111.38 -27.41,-32.03 -88.61,-72.24 -183.98,-120.63 -102.49,-52.68 -172.24,-104.63 -208.89,-155.87 -37.02,-51.24 -55.52,-109.6 -55.52,-175.43 0,-85.77 29.54,-156.94 88.26,-213.87 59.07,-56.59 133.45,-85.05 223.48,-85.05 104.62,0 209.96,50.17 316,150.89z"/>
   <path id="_4_3" class="fil1" d="M6182.62 1174.34l123.13 64.78c-40.56,78.63 -87.19,142.33 -140.21,190.74 -53.02,48.04 -112.45,85.05 -178.64,110.31 -66.55,25.27 -141.28,37.73 -224.91,37.73 -185.76,0 -330.59,-60.51 -435.22,-181.5 -104.62,-120.99 -156.94,-257.64 -156.94,-409.95 0,-143.41 44.49,-271.52 133.1,-383.61 112.09,-142.7 262.62,-214.23 450.87,-214.23 193.94,0 349.1,73.31 464.75,219.57 82.21,103.19 124.19,232.01 125.62,386.82l-1024.88 0c2.85,131.31 45.2,238.79 126.68,322.41 81.85,83.99 182.92,125.98 302.84,125.98 58,0 114.58,-9.97 169.4,-29.9 54.8,-19.93 101.41,-46.26 139.85,-79.36 38.43,-33.09 80.06,-86.12 124.55,-159.79zm1.42 -305.32c-19.58,-77.93 -48.05,-139.85 -85.41,-186.47 -37.72,-46.63 -87.19,-83.99 -148.75,-112.46 -61.56,-28.46 -126.33,-42.7 -193.94,-42.7 -112.09,0 -208.18,35.58 -288.61,107.11 -59.07,52.32 -103.19,130.24 -133.45,234.52l850.15 0z"/>
   <path id="_5_4" class="fil2" d="M6422.75 17.08l305.69 0c175.08,0 293.59,7.47 354.79,22.78 87.53,21.71 159.06,65.83 214.59,133.09 55.87,66.9 83.62,151.24 83.62,252.66 0,102.14 -27.04,186.12 -81.48,252.67 -54.1,66.19 -128.83,110.67 -223.84,133.8 -69.75,16.72 -199.64,24.9 -390.03,24.9l-109.6 0 0 713.15 -153.73 0 0 -1533.05zm153.73 149.46l0 520.99 259.78 3.19c104.99,0 181.85,-9.6 230.6,-28.82 48.75,-19.22 87.19,-49.82 114.94,-92.53 27.76,-42.7 41.64,-90.74 41.64,-143.41 0,-51.24 -13.88,-98.57 -41.64,-141.28 -27.75,-42.7 -64.77,-72.95 -110.31,-91.09 -45.55,-18.15 -119.92,-27.05 -223.84,-27.05l-271.16 0z"/>
   <path id="_6_5" class="fil2" d="M7457.88 416.36l149.46 0 0 165.84c44.49,-65.48 91.46,-113.87 140.92,-145.9 49.47,-31.67 101.07,-47.68 154.45,-47.68 40.56,0 83.63,12.81 129.53,38.43l-76.16 122.43c-30.6,-13.17 -56.22,-19.93 -77.22,-19.93 -48.75,0 -95.72,19.93 -140.92,59.78 -45.19,39.85 -79.7,102.13 -103.55,186.11 -18.15,64.41 -27.05,195.01 -27.05,391.45l0 383.26 -149.46 0 0 -1133.78z"/>
   <path id="_7_6" class="fil2" d="M8479.85 388.61c174.72,0 319.91,62.99 434.87,189.31 104.62,114.94 156.93,251.23 156.93,408.53 0,158.01 -55.16,296.08 -165.82,414.22 -110.32,118.14 -252.67,177.23 -425.97,177.23 -174.38,0 -317.08,-59.08 -427.39,-177.23 -110.67,-118.14 -165.84,-256.22 -165.84,-414.22 0,-156.58 52.32,-292.52 156.94,-407.46 114.95,-127.04 260.49,-190.38 436.29,-190.38zm-0.71 143.06c-121.35,0 -225.26,44.48 -312.45,133.8 -87.18,89.32 -130.6,197.5 -130.6,324.19 0,81.49 19.93,157.65 59.43,228.47 39.86,70.46 93.6,124.9 161.21,163.33 67.26,38.44 141.63,57.66 222.42,57.66 80.78,0 155.16,-19.22 222.42,-57.66 67.61,-38.43 121.35,-92.87 161.2,-163.33 39.51,-70.82 59.43,-146.97 59.43,-228.47 0,-126.68 -43.77,-234.86 -131.31,-324.19 -87.18,-89.32 -191.09,-133.8 -311.73,-133.8z"/>
   <polygon class="fil1" points="6422.83,2078.74 6422.83,1677.76 6431.49,1677.76 6698.16,1984.45 6698.16,1677.76 6738.38,1677.76 6738.38,2078.74 6729.26,2078.74 6464.17,1774.74 6464.17,2078.74 "/>
   <path id="_1_7" class="fil1" d="M6835.36 1677.76l79.96 0c45.8,0 76.78,1.95 92.8,5.96 22.9,5.67 41.61,17.21 56.12,34.81 14.62,17.5 21.88,39.55 21.88,66.08 0,26.72 -7.07,48.68 -21.31,66.09 -14.15,17.31 -33.71,28.94 -58.55,34.99 -18.25,4.38 -52.23,6.53 -102.02,6.53l-28.66 0 0 186.53 -40.22 0 0 -400.98zm40.22 39.09l0 136.27 67.95 0.83c27.45,0 47.56,-2.52 60.32,-7.53 12.75,-5.03 22.8,-13.04 30.06,-24.2 7.26,-11.18 10.89,-23.74 10.89,-37.51 0,-13.41 -3.63,-25.78 -10.89,-36.96 -7.26,-11.16 -16.94,-19.08 -28.85,-23.82 -11.92,-4.75 -31.37,-7.07 -58.55,-7.07l-70.92 0z"/>
   <path id="_2_8" class="fil1" d="M7694.1 1751.75l-31.64 24.29c-17.4,-22.71 -38.36,-39.92 -62.83,-51.66 -24.39,-11.72 -51.19,-17.59 -80.51,-17.59 -31.93,0 -61.53,7.74 -88.8,23.09 -27.28,15.36 -48.31,36.02 -63.29,61.89 -14.98,25.88 -22.53,55.11 -22.53,87.4 0,48.96 16.76,89.82 50.27,122.5 33.5,32.77 75.76,49.14 126.86,49.14 56.13,0 103.04,-21.96 140.84,-65.89l31.64 24.01c-20.01,25.41 -44.95,45.14 -74.84,59.01 -29.87,13.87 -63.29,20.85 -100.14,20.85 -70.19,0 -125.57,-23.36 -166.06,-70.08 -33.97,-39.38 -51,-87.03 -51,-142.78 0,-58.64 20.57,-108.07 61.72,-148.1 41.23,-40.11 92.79,-60.13 154.79,-60.13 37.41,0 71.2,7.36 101.35,22.07 30.16,14.79 54.92,35.46 74.19,61.99z"/>
   <polygon id="_3_9" class="fil1" points="7774.52,1677.76 7814.74,1677.76 7814.74,2039.65 7969.43,2039.65 7969.43,2078.74 7774.52,2078.74 "/>
   <polygon id="_4_10" class="fil1" points="8026.87,1677.76 8067.07,1677.76 8067.07,2078.74 8026.87,2078.74 "/>
   <polygon id="_5_11" class="fil1" points="8159.21,2078.74 8159.21,1677.76 8167.87,1677.76 8434.54,1984.45 8434.54,1677.76 8474.76,1677.76 8474.76,2078.74 8465.63,2078.74 8200.54,1774.74 8200.54,2078.74 "/>
   <polygon id="_6_12" class="fil1" points="8566.16,1677.76 8606.37,1677.76 8606.37,2078.74 8566.16,2078.74 "/>
   <path id="_7_13" class="fil1" d="M9071.57 1751.75l-31.64 24.29c-17.4,-22.71 -38.36,-39.92 -62.83,-51.66 -24.39,-11.72 -51.19,-17.59 -80.51,-17.59 -31.93,0 -61.53,7.74 -88.8,23.09 -27.28,15.36 -48.31,36.02 -63.29,61.89 -14.98,25.88 -22.53,55.11 -22.53,87.4 0,48.96 16.76,89.82 50.27,122.5 33.5,32.77 75.76,49.14 126.86,49.14 56.13,0 103.04,-21.96 140.84,-65.89l31.64 24.01c-20.01,25.41 -44.95,45.14 -74.84,59.01 -29.87,13.87 -63.29,20.85 -100.14,20.85 -70.19,0 -125.57,-23.36 -166.06,-70.08 -33.97,-39.38 -51,-87.03 -51,-142.78 0,-58.64 20.57,-108.07 61.72,-148.1 41.23,-40.11 92.79,-60.13 154.79,-60.13 37.41,0 71.2,7.36 101.35,22.07 30.16,14.79 54.92,35.46 74.19,61.99z"/>
   <path class="fil3" d="M463.6 2078.74l488.67 0c118.08,0 214.23,48.14 214.23,107.58l0 138.63c0,36.53 29.87,66.43 66.41,66.43l247.12 0c36.54,0 66.43,-29.89 66.43,-66.43l0 -138.29c0,-59.61 48.32,-107.93 107.94,-107.93l164.1 0c59.61,0 107.93,48.35 107.93,107.93l0 465.75c0,36.51 29.89,66.41 66.43,66.41l246.75 0c36.54,0 66.43,-29.89 66.43,-66.41l0 -466.08c0,-59.45 96.13,-107.58 214.22,-107.58l481.05 -0.01c40.73,0 74.04,-33.31 74.04,-74.04l0 -380.02c0,-40.73 -33.31,-74.04 -74.04,-74.04l-514.94 0c-40.72,0 -74.04,33.34 -74.04,74.04l0 346.13c0,59.58 -95.94,107.94 -214.22,107.94l-163.75 -0.01c-59.58,0 -107.93,-48.32 -107.93,-107.93l0 -1904.39c0,-36.52 -29.91,-66.41 -66.43,-66.41l-247.12 0c-36.53,0 -66.43,29.91 -66.43,66.41l0 1904.39c0,59.59 -48.33,107.93 -107.93,107.93l-164.1 0c-118.3,0 -214.23,-48.32 -214.23,-107.93l0 -104.21c0,-36.53 -29.9,-66.43 -66.41,-66.43l-530.18 0c-36.54,0 -66.43,29.9 -66.43,66.43l0 145.71c0,36.53 29.89,66.43 66.43,66.43zm2981.96 0l-60.39 0c-14.83,0 -26.99,-12.14 -26.99,-26.98l0 -60.4c0,-14.84 12.15,-26.98 26.99,-26.98l60.39 0c14.85,0 26.99,12.16 26.99,26.98l0 60.4c0,14.83 -12.17,26.98 -26.99,26.98zm-198.59 0l-60.4 0c-14.83,0 -26.99,-12.14 -26.99,-26.98l0 -60.4c0,-14.84 12.15,-26.98 26.99,-26.98l60.4 0c14.84,0 26.98,12.15 26.98,26.98l0 60.4c0,14.83 -12.15,26.98 -26.98,26.98zm-3159.59 0l-60.4 0c-14.81,0 -26.98,-12.14 -26.98,-26.98l0 -60.4c0,-14.84 12.14,-26.98 26.98,-26.98l60.4 0c14.85,0 26.98,12.17 26.98,26.98l0 60.4c0,14.81 -12.2,26.98 -26.98,26.98zm198.59 0l-60.4 0c-14.81,0 -26.98,-12.14 -26.98,-26.98l0 -60.4c0,-14.84 12.15,-26.98 26.98,-26.98l60.4 0c14.85,0 26.98,12.16 26.98,26.98l0 60.4c0,14.82 -12.18,26.98 -26.98,26.98z"/>
  </g>
 </g>
</svg>
